<svg width="500" height="500" viewBox="0 0 500 500" fill="none" xmlns="http://www.w3.org/2000/svg">
<rect width="500" height="500" fill="#0C0C0C"/>
<path d="M236.14 184.365V207.12H134.05V242.79H217.69V264.11H134.05V317H106.785V184.365H236.14ZM326.46 265.135V184.365H353.725V266.98C353.725 273.95 352.427 280.578 349.83 286.865C347.37 293.152 343.612 298.755 338.555 303.675C333.635 308.458 327.485 312.217 320.105 314.95C312.862 317.683 304.388 319.05 294.685 319.05C287.168 319.05 279.857 318.093 272.75 316.18C265.78 314.267 259.493 311.397 253.89 307.57C248.287 303.607 243.777 298.687 240.36 292.81C236.943 286.797 235.098 279.758 234.825 271.695H260.655C262.158 279.485 265.985 285.43 272.135 289.53C278.422 293.493 285.938 295.475 294.685 295.475C302.202 295.475 308.283 294.177 312.93 291.58C317.577 288.847 320.993 285.225 323.18 280.715C325.367 276.068 326.46 270.875 326.46 265.135ZM396.831 293.63V317H365.876V293.63H396.831Z" fill="white"/>
</svg>
